<mxfile host="app.diagrams.net" modified="2021-04-15T11:21:49.887Z" agent="5.0 (Macintosh; Intel Mac OS X 11_1_0) AppleWebKit/537.36 (KHTML, like Gecko) Chrome/89.0.4389.114 Safari/537.36" etag="gfx_iUGzc1onFBlLVU_L" version="14.6.0" type="github" pages="2">
  <diagram id="PZ0gaJd5SjNvg4e02rRV" name="Page-1">
    <mxGraphModel dx="946" dy="614" grid="1" gridSize="10" guides="1" tooltips="1" connect="1" arrows="1" fold="1" page="1" pageScale="1" pageWidth="827" pageHeight="1169" math="0" shadow="0">
      <root>
        <mxCell id="0" />
        <mxCell id="1" parent="0" />
        <mxCell id="iDDh_3z2OOfY3PZBPoct-3" value="" style="shape=waypoint;sketch=0;size=6;pointerEvents=1;points=[];fillColor=none;resizable=0;rotatable=0;perimeter=centerPerimeter;snapToPoint=1;" vertex="1" parent="1">
          <mxGeometry x="360" y="360" width="40" height="40" as="geometry" />
        </mxCell>
        <mxCell id="iDDh_3z2OOfY3PZBPoct-4" value="" style="shape=waypoint;sketch=0;size=6;pointerEvents=1;points=[];fillColor=none;resizable=0;rotatable=0;perimeter=centerPerimeter;snapToPoint=1;" vertex="1" parent="1">
          <mxGeometry x="380" y="370" width="40" height="40" as="geometry" />
        </mxCell>
        <mxCell id="iDDh_3z2OOfY3PZBPoct-5" value="" style="shape=waypoint;sketch=0;size=6;pointerEvents=1;points=[];fillColor=none;resizable=0;rotatable=0;perimeter=centerPerimeter;snapToPoint=1;" vertex="1" parent="1">
          <mxGeometry x="384" y="360" width="40" height="40" as="geometry" />
        </mxCell>
        <mxCell id="iDDh_3z2OOfY3PZBPoct-7" value="" style="shape=waypoint;sketch=0;size=6;pointerEvents=1;points=[];fillColor=none;resizable=0;rotatable=0;perimeter=centerPerimeter;snapToPoint=1;" vertex="1" parent="1">
          <mxGeometry x="374" y="360" width="40" height="40" as="geometry" />
        </mxCell>
        <mxCell id="iDDh_3z2OOfY3PZBPoct-8" value="" style="shape=waypoint;sketch=0;size=6;pointerEvents=1;points=[];fillColor=none;resizable=0;rotatable=0;perimeter=centerPerimeter;snapToPoint=1;" vertex="1" parent="1">
          <mxGeometry x="364" y="350" width="40" height="40" as="geometry" />
        </mxCell>
        <mxCell id="iDDh_3z2OOfY3PZBPoct-9" value="" style="shape=waypoint;sketch=0;size=6;pointerEvents=1;points=[];fillColor=none;resizable=0;rotatable=0;perimeter=centerPerimeter;snapToPoint=1;" vertex="1" parent="1">
          <mxGeometry x="400" y="350" width="40" height="40" as="geometry" />
        </mxCell>
        <mxCell id="iDDh_3z2OOfY3PZBPoct-10" value="" style="shape=waypoint;sketch=0;size=6;pointerEvents=1;points=[];fillColor=none;resizable=0;rotatable=0;perimeter=centerPerimeter;snapToPoint=1;" vertex="1" parent="1">
          <mxGeometry x="414" y="380" width="40" height="40" as="geometry" />
        </mxCell>
        <mxCell id="iDDh_3z2OOfY3PZBPoct-11" value="" style="shape=waypoint;sketch=0;size=6;pointerEvents=1;points=[];fillColor=none;resizable=0;rotatable=0;perimeter=centerPerimeter;snapToPoint=1;" vertex="1" parent="1">
          <mxGeometry x="404" y="380" width="40" height="40" as="geometry" />
        </mxCell>
        <mxCell id="iDDh_3z2OOfY3PZBPoct-12" value="" style="shape=waypoint;sketch=0;size=6;pointerEvents=1;points=[];fillColor=none;resizable=0;rotatable=0;perimeter=centerPerimeter;snapToPoint=1;" vertex="1" parent="1">
          <mxGeometry x="414" y="370" width="40" height="40" as="geometry" />
        </mxCell>
        <mxCell id="iDDh_3z2OOfY3PZBPoct-13" value="" style="shape=waypoint;sketch=0;size=6;pointerEvents=1;points=[];fillColor=none;resizable=0;rotatable=0;perimeter=centerPerimeter;snapToPoint=1;" vertex="1" parent="1">
          <mxGeometry x="424" y="350" width="40" height="40" as="geometry" />
        </mxCell>
        <mxCell id="iDDh_3z2OOfY3PZBPoct-14" value="" style="shape=waypoint;sketch=0;size=6;pointerEvents=1;points=[];fillColor=none;resizable=0;rotatable=0;perimeter=centerPerimeter;snapToPoint=1;" vertex="1" parent="1">
          <mxGeometry x="404" y="350" width="40" height="40" as="geometry" />
        </mxCell>
        <mxCell id="iDDh_3z2OOfY3PZBPoct-15" value="" style="shape=waypoint;sketch=0;size=6;pointerEvents=1;points=[];fillColor=none;resizable=0;rotatable=0;perimeter=centerPerimeter;snapToPoint=1;" vertex="1" parent="1">
          <mxGeometry x="430" y="370" width="40" height="40" as="geometry" />
        </mxCell>
        <mxCell id="iDDh_3z2OOfY3PZBPoct-16" value="" style="shape=waypoint;sketch=0;size=6;pointerEvents=1;points=[];fillColor=none;resizable=0;rotatable=0;perimeter=centerPerimeter;snapToPoint=1;" vertex="1" parent="1">
          <mxGeometry x="400" y="370" width="40" height="40" as="geometry" />
        </mxCell>
        <mxCell id="iDDh_3z2OOfY3PZBPoct-17" value="" style="shape=waypoint;sketch=0;size=6;pointerEvents=1;points=[];fillColor=none;resizable=0;rotatable=0;perimeter=centerPerimeter;snapToPoint=1;" vertex="1" parent="1">
          <mxGeometry x="360" y="380" width="40" height="40" as="geometry" />
        </mxCell>
        <mxCell id="iDDh_3z2OOfY3PZBPoct-18" value="" style="shape=waypoint;sketch=0;size=6;pointerEvents=1;points=[];fillColor=none;resizable=0;rotatable=0;perimeter=centerPerimeter;snapToPoint=1;" vertex="1" parent="1">
          <mxGeometry x="374" y="360" width="40" height="40" as="geometry" />
        </mxCell>
        <mxCell id="iDDh_3z2OOfY3PZBPoct-19" value="" style="shape=waypoint;sketch=0;size=6;pointerEvents=1;points=[];fillColor=none;resizable=0;rotatable=0;perimeter=centerPerimeter;snapToPoint=1;" vertex="1" parent="1">
          <mxGeometry x="384" y="370" width="40" height="40" as="geometry" />
        </mxCell>
        <mxCell id="iDDh_3z2OOfY3PZBPoct-20" value="" style="shape=waypoint;sketch=0;size=6;pointerEvents=1;points=[];fillColor=none;resizable=0;rotatable=0;perimeter=centerPerimeter;snapToPoint=1;" vertex="1" parent="1">
          <mxGeometry x="394" y="380" width="40" height="40" as="geometry" />
        </mxCell>
        <mxCell id="iDDh_3z2OOfY3PZBPoct-21" value="" style="shape=waypoint;sketch=0;size=6;pointerEvents=1;points=[];fillColor=none;resizable=0;rotatable=0;perimeter=centerPerimeter;snapToPoint=1;" vertex="1" parent="1">
          <mxGeometry x="424" y="360" width="40" height="40" as="geometry" />
        </mxCell>
        <mxCell id="iDDh_3z2OOfY3PZBPoct-22" value="" style="shape=waypoint;sketch=0;size=6;pointerEvents=1;points=[];fillColor=none;resizable=0;rotatable=0;perimeter=centerPerimeter;snapToPoint=1;" vertex="1" parent="1">
          <mxGeometry x="324" y="380" width="40" height="40" as="geometry" />
        </mxCell>
        <mxCell id="iDDh_3z2OOfY3PZBPoct-23" value="" style="shape=waypoint;sketch=0;size=6;pointerEvents=1;points=[];fillColor=none;resizable=0;rotatable=0;perimeter=centerPerimeter;snapToPoint=1;" vertex="1" parent="1">
          <mxGeometry x="340" y="370" width="40" height="40" as="geometry" />
        </mxCell>
        <mxCell id="iDDh_3z2OOfY3PZBPoct-24" value="" style="shape=waypoint;sketch=0;size=6;pointerEvents=1;points=[];fillColor=none;resizable=0;rotatable=0;perimeter=centerPerimeter;snapToPoint=1;" vertex="1" parent="1">
          <mxGeometry x="334" y="360" width="40" height="40" as="geometry" />
        </mxCell>
        <mxCell id="iDDh_3z2OOfY3PZBPoct-25" value="" style="shape=waypoint;sketch=0;size=6;pointerEvents=1;points=[];fillColor=none;resizable=0;rotatable=0;perimeter=centerPerimeter;snapToPoint=1;" vertex="1" parent="1">
          <mxGeometry x="340" y="350" width="40" height="40" as="geometry" />
        </mxCell>
        <mxCell id="iDDh_3z2OOfY3PZBPoct-26" value="" style="shape=waypoint;sketch=0;size=6;pointerEvents=1;points=[];fillColor=none;resizable=0;rotatable=0;perimeter=centerPerimeter;snapToPoint=1;" vertex="1" parent="1">
          <mxGeometry x="324" y="350" width="40" height="40" as="geometry" />
        </mxCell>
        <mxCell id="iDDh_3z2OOfY3PZBPoct-27" value="" style="shape=waypoint;sketch=0;size=6;pointerEvents=1;points=[];fillColor=none;resizable=0;rotatable=0;perimeter=centerPerimeter;snapToPoint=1;" vertex="1" parent="1">
          <mxGeometry x="310" y="360" width="40" height="40" as="geometry" />
        </mxCell>
        <mxCell id="iDDh_3z2OOfY3PZBPoct-28" value="" style="shape=waypoint;sketch=0;size=6;pointerEvents=1;points=[];fillColor=none;resizable=0;rotatable=0;perimeter=centerPerimeter;snapToPoint=1;" vertex="1" parent="1">
          <mxGeometry x="300" y="380" width="40" height="40" as="geometry" />
        </mxCell>
        <mxCell id="iDDh_3z2OOfY3PZBPoct-29" value="" style="shape=waypoint;sketch=0;size=6;pointerEvents=1;points=[];fillColor=none;resizable=0;rotatable=0;perimeter=centerPerimeter;snapToPoint=1;" vertex="1" parent="1">
          <mxGeometry x="300" y="350" width="40" height="40" as="geometry" />
        </mxCell>
        <mxCell id="iDDh_3z2OOfY3PZBPoct-30" value="" style="shape=curlyBracket;whiteSpace=wrap;html=1;rounded=1;" vertex="1" parent="1">
          <mxGeometry x="550" y="70" width="20" height="120" as="geometry" />
        </mxCell>
        <mxCell id="iDDh_3z2OOfY3PZBPoct-31" value="" style="strokeWidth=2;html=1;shape=mxgraph.flowchart.annotation_2;align=left;labelPosition=right;pointerEvents=1;rotation=90;" vertex="1" parent="1">
          <mxGeometry x="324" y="320" width="25" height="40" as="geometry" />
        </mxCell>
        <mxCell id="iDDh_3z2OOfY3PZBPoct-32" value="" style="html=1;shape=mxgraph.flowchart.annotation_2;align=left;labelPosition=right;" vertex="1" parent="1">
          <mxGeometry x="580" y="230" width="50" height="100" as="geometry" />
        </mxCell>
        <mxCell id="iDDh_3z2OOfY3PZBPoct-33" value="" style="shape=image;html=1;verticalAlign=top;verticalLabelPosition=bottom;labelBackgroundColor=#ffffff;imageAspect=0;aspect=fixed;image=https://cdn2.iconfinder.com/data/icons/crystalproject/Open-Office-Icons/lc_symbolshapes.left-bracket.png" vertex="1" parent="1">
          <mxGeometry x="276" y="360" width="50" height="50" as="geometry" />
        </mxCell>
        <mxCell id="iDDh_3z2OOfY3PZBPoct-34" value="" style="shape=image;html=1;verticalAlign=top;verticalLabelPosition=bottom;labelBackgroundColor=#ffffff;imageAspect=0;aspect=fixed;image=https://cdn2.iconfinder.com/data/icons/crystalproject/Open-Office-Icons/lc_symbolshapes.right-bracket.png" vertex="1" parent="1">
          <mxGeometry x="440" y="360" width="50" height="50" as="geometry" />
        </mxCell>
      </root>
    </mxGraphModel>
  </diagram>
  <diagram id="rqVQSijVXKifbXxBe1PL" name="Page-2">
    <mxGraphModel dx="946" dy="614" grid="1" gridSize="10" guides="1" tooltips="1" connect="1" arrows="1" fold="1" page="1" pageScale="1" pageWidth="827" pageHeight="1169" math="0" shadow="0">
      <root>
        <mxCell id="kSWOY7Myh7TlO0aC2CSJ-0" />
        <mxCell id="kSWOY7Myh7TlO0aC2CSJ-1" parent="kSWOY7Myh7TlO0aC2CSJ-0" />
      </root>
    </mxGraphModel>
  </diagram>
</mxfile>
